HIERARCHY
ROOT root
{
	OFFSET 0.000000 0.000000 0.000000
	CHANNELS 6 Xposition Yposition Zposition Zrotation Yrotation Xrotation
	JOINT lhip
	{
		OFFSET 0.058581 -0.082280 -0.017664
		CHANNELS 3 Zrotation Yrotation Xrotation
		JOINT lknee
		{
			OFFSET 0.043451 -0.386469 0.008037
			CHANNELS 3 Zrotation Yrotation Xrotation
			JOINT lankle
			{
				OFFSET -0.014790 -0.426874 -0.037428
				CHANNELS 3 Zrotation Yrotation Xrotation
				JOINT ltoe
				{
					OFFSET 0.041054 -0.060286 0.122042
					CHANNELS 3 Zrotation Yrotation Xrotation
					End Site
					{
						OFFSET 0.000000 0.000000 0.000000
					}
				}
			}
		}
	}
	JOINT rhip
	{
		OFFSET -0.060310 -0.090513 -0.013543
		CHANNELS 3 Zrotation Yrotation Xrotation
		JOINT rknee
		{
			OFFSET -0.043257 -0.383688 -0.004843
			CHANNELS 3 Zrotation Yrotation Xrotation
			JOINT rankle
			{
				OFFSET 0.019056 -0.420046 -0.034562
				CHANNELS 3 Zrotation Yrotation Xrotation
				JOINT rtoe
				{
					OFFSET -0.034840 -0.062106 0.130323
					CHANNELS 3 Zrotation Yrotation Xrotation
					End Site
					{
						OFFSET 0.000000 0.000000 0.000000
					}
				}
			}
		}
	}
	JOINT lowerback
	{
		OFFSET 0.004439 0.124404 -0.038385
		CHANNELS 3 Zrotation Yrotation Xrotation
		JOINT upperback
		{
			OFFSET 0.004488 0.137956 0.026820
			CHANNELS 3 Zrotation Yrotation Xrotation
			JOINT chest
			{
				OFFSET -0.002265 0.056032 0.002855
				CHANNELS 3 Zrotation Yrotation Xrotation
				JOINT lowerneck
				{
					OFFSET -0.013390 0.211636 -0.033468
					CHANNELS 3 Zrotation Yrotation Xrotation
					JOINT upperneck
					{
						OFFSET 0.010113 0.088937 0.050410
						CHANNELS 3 Zrotation Yrotation Xrotation
						End Site
						{
							OFFSET 0.000000 0.000000 0.000000
						}
					}
				}
				JOINT lclavicle
				{
					OFFSET 0.071702 0.114000 -0.018898
					CHANNELS 3 Zrotation Yrotation Xrotation
					JOINT lshoulder
					{
						OFFSET 0.122921 0.045205 -0.019046
						CHANNELS 3 Zrotation Yrotation Xrotation
						JOINT lelbow
						{
							OFFSET 0.255332 -0.015649 -0.022946
							CHANNELS 3 Zrotation Yrotation Xrotation
							JOINT lwrist
							{
								OFFSET 0.265709 0.012698 -0.007375
								CHANNELS 3 Zrotation Yrotation Xrotation
								End Site
								{
									OFFSET 0.000000 0.000000 0.000000
								}
							}
						}
					}
				}
				JOINT rclavicle
				{
					OFFSET -0.082954 0.112472 -0.023707
					CHANNELS 3 Zrotation Yrotation Xrotation
					JOINT rshoulder
					{
						OFFSET -0.113228 0.046853 -0.008472
						CHANNELS 3 Zrotation Yrotation Xrotation
						JOINT relbow
						{
							OFFSET -0.260127 -0.014369 -0.031269
							CHANNELS 3 Zrotation Yrotation Xrotation
							JOINT rwrist
							{
								OFFSET -0.269108 0.006794 -0.006027
								CHANNELS 3 Zrotation Yrotation Xrotation
								End Site
								{
									OFFSET 0.000000 0.000000 0.000000
								}
							}
						}
					}
				}
			}
		}
	}
}
MOTION
Frames: 11
Frame Time: 0.033333
-2.109582 0.786588 0.985795 106.625738 -4.303964 82.060647 -5.625110 -4.907368 -6.898838 -9.775790 -7.093540 22.371937 5.026240 6.642952 -14.279591 0.000000 -0.000000 0.000000 -14.162388 -7.008404 -5.005375 -1.614401 -4.549059 44.110542 4.344596 -4.941543 -9.461408 0.000000 -0.000000 0.000000 4.194778 5.890492 5.136267 4.199922 0.354850 8.363641 1.616904 5.052823 2.786199 -2.570082 -25.736351 20.432624 11.321554 -24.078452 -17.660575 -9.402219 -1.136162 -1.661728 -56.156332 -8.207730 13.426337 -13.856674 -54.707288 39.539642 -5.115131 -1.488652 -14.605878 13.637363 15.321705 4.727795 47.074471 16.653032 4.960070 -5.893932 30.961717 15.860821 -9.699236 6.383662 18.051394 
-2.111786 0.788547 0.981595 107.068323 -4.862382 81.823831 -6.170072 -4.807721 -7.368933 -10.320848 -6.836377 23.424053 5.096352 6.426624 -15.354210 0.000000 -0.000000 0.000000 -14.784877 -7.651577 -5.374181 -2.345587 -5.062225 45.098960 4.361971 -5.188375 -10.981256 0.000000 -0.000000 0.000000 4.099267 6.051021 5.222973 3.839910 -0.177010 8.297104 1.289574 4.716458 2.842873 -3.216971 -25.244785 21.083450 11.444340 -23.875249 -17.599228 -9.048222 -2.361460 -1.733397 -55.172336 -9.541463 12.969635 -12.477504 -54.717502 37.484815 -4.393326 -1.475771 -14.442318 13.459238 15.380906 4.795066 48.165512 15.452245 5.200223 -5.734557 30.620888 15.988224 -10.507711 6.271134 17.581455 
-2.114371 0.789488 0.976919 107.018479 -5.578104 81.375271 -6.526727 -4.278350 -7.523197 -11.028479 -6.177316 24.143355 4.887433 5.958473 -16.133521 0.000000 -0.000000 0.000000 -15.214550 -7.732591 -5.585584 -3.049305 -5.107010 45.789513 4.020598 -5.899865 -12.659894 0.000000 -0.000000 0.000000 3.871662 6.070416 5.695551 3.421642 -0.410733 8.424210 0.977036 4.702156 2.670557 -4.222876 -24.495941 22.402305 12.037788 -23.162371 -18.321854 -8.759204 -4.347755 -2.010657 -53.903429 -11.263718 12.426850 -10.156617 -53.627542 34.603760 -3.030431 -1.160024 -12.148349 13.289913 15.567052 4.849606 49.455009 13.524790 4.950408 -6.533142 30.282649 15.299810 -9.775237 5.565922 17.675244 
-2.116873 0.789939 0.973355 106.976537 -6.401181 80.888082 -7.033581 -4.089854 -7.410041 -11.654633 -5.398958 24.446923 4.638101 5.608714 -16.780196 0.000000 -0.000000 0.000000 -15.826933 -7.502156 -5.445701 -3.482821 -4.963510 45.937091 3.685758 -7.191157 -14.595418 0.000000 -0.000000 0.000000 3.816510 6.087970 5.894803 2.939355 -0.946201 8.649672 0.491937 4.475088 2.615122 -5.130745 -23.554427 23.349104 12.215146 -22.428955 -18.426219 -8.634360 -6.294282 -2.086226 -52.517694 -13.013859 11.808733 -7.579522 -51.810447 30.172932 -1.114915 -2.195705 -10.777800 13.040581 15.651907 4.760875 50.445476 11.883723 5.206613 -6.588925 29.581815 14.948970 -9.696737 5.355143 17.344370 
-2.118655 0.789387 0.970844 106.846897 -6.963859 80.370712 -7.519407 -3.662332 -7.207955 -11.811561 -5.147483 24.836885 4.312533 5.801119 -17.325232 0.000000 -0.000000 0.000000 -16.092496 -7.251688 -4.856498 -3.905137 -4.862379 45.396150 3.231625 -8.533358 -16.366246 0.000000 -0.000000 0.000000 3.970460 5.883170 5.982480 2.560540 -1.405442 8.538514 0.204261 4.216919 2.865967 -6.325432 -22.622450 24.634604 12.185204 -21.339219 -18.836917 -8.579809 -8.215873 -2.012346 -51.430174 -14.448400 11.209138 -5.324818 -48.865916 26.413551 2.346249 -1.725864 -9.046122 12.504080 15.750762 4.798763 51.276118 10.099339 5.519103 -5.791638 28.787138 14.735825 -13.507358 5.068859 15.601326 
-2.120365 0.788604 0.968888 106.299079 -7.566811 80.244851 -8.145475 -3.335202 -7.378375 -11.603067 -4.790330 25.217741 3.987472 5.782640 -17.894229 0.000000 -0.000000 0.000000 -16.350864 -7.193821 -4.601186 -4.654888 -4.845294 44.563118 3.249018 -9.397978 -17.906040 0.000000 -0.000000 0.000000 4.233899 5.701835 6.046371 2.193602 -1.836596 8.127391 -0.090960 3.953919 2.714559 -7.397153 -21.488084 25.442643 11.750200 -20.072750 -18.957727 -8.564475 -9.575192 -1.881162 -50.892731 -15.768231 10.339193 -3.405119 -45.674523 23.970342 3.818875 -2.620447 -7.620346 12.292262 15.447945 4.794323 51.618652 8.512979 5.154775 -5.888373 27.914619 15.164257 -12.429640 5.876322 16.111390 
-2.121543 0.786466 0.967747 105.358114 -7.957735 80.167400 -8.343630 -2.987835 -7.578723 -11.389204 -4.208795 25.629486 3.586673 5.627899 -18.151110 0.000000 -0.000000 0.000000 -16.192278 -7.032435 -4.086921 -5.310666 -4.866363 43.152749 2.897108 -10.201870 -19.271699 0.000000 -0.000000 0.000000 4.730463 5.433099 6.108922 1.817997 -2.254067 7.684057 -0.317726 3.629234 2.517429 -8.185693 -20.109563 25.922166 11.107271 -18.781890 -18.879455 -8.835978 -10.589993 -1.562734 -50.248656 -16.685557 9.316394 -1.941308 -42.867158 21.665920 4.374777 -4.041854 -7.032137 11.946214 15.167929 5.228899 51.782975 7.177786 5.149600 -4.980610 26.960704 15.909013 -16.220687 6.964473 14.362476 
-2.122527 0.783622 0.966991 104.285856 -8.379802 80.283071 -8.432929 -2.645341 -7.901526 -11.328529 -3.771436 25.860422 3.502191 5.741084 -18.033856 0.000000 -0.000000 0.000000 -16.086235 -7.016546 -3.630860 -5.571593 -4.991139 41.345147 2.524859 -11.380305 -20.866430 0.000000 -0.000000 0.000000 5.028124 5.011197 5.842274 1.650698 -2.866732 7.337444 -0.467797 3.213229 2.503297 -8.897918 -18.935028 25.582265 9.895831 -16.879874 -18.442366 -8.991579 -11.229639 -1.021866 -50.178371 -17.229417 8.421824 0.296270 -40.421563 18.681627 7.571550 -4.631736 -5.776750 11.369339 14.404774 4.969257 51.904820 6.396834 4.923795 -4.977104 26.364764 16.373932 -14.787724 7.043284 15.003328 
-2.123324 0.779982 0.967022 102.717169 -8.843329 80.366454 -8.460625 -2.069162 -7.836617 -11.074199 -3.168857 25.529948 3.198367 5.850446 -17.955226 0.000000 -0.000000 0.000000 -15.951092 -6.828623 -3.159673 -5.858227 -5.127485 39.187275 1.990752 -12.527429 -22.052268 0.000000 -0.000000 0.000000 5.472859 4.475100 5.655870 1.355258 -3.241539 7.069789 -0.604741 2.897159 2.420304 -9.648830 -17.464113 25.449795 8.536836 -14.792019 -17.720860 -9.368825 -11.933466 -0.656139 -49.945712 -17.225842 7.565830 2.245640 -38.039186 15.963623 9.001373 -5.176391 -5.500077 11.127655 14.529743 4.937537 51.743654 5.176251 4.946084 -5.548453 25.945967 15.173168 -15.951543 7.001255 14.154264 
-2.123187 0.774710 0.967851 100.617815 -9.106859 80.338569 -8.146721 -1.429904 -7.384655 -10.613699 -2.405998 25.048753 2.510113 6.024720 -17.920830 0.000000 -0.000000 0.000000 -15.542830 -6.578778 -2.310424 -5.803598 -4.778921 36.507966 1.716292 -13.262029 -23.461006 0.000000 -0.000000 0.000000 5.825014 4.053455 5.103584 1.378977 -3.588222 7.750611 -0.573879 2.368029 2.235188 -9.687169 -15.606933 24.517209 6.713499 -12.505485 -17.248974 -9.867970 -12.328701 -0.068528 -49.728224 -17.387346 6.501726 3.917993 -35.315241 13.599459 11.642533 -5.944433 -5.001693 10.711698 13.776442 4.542076 50.930035 5.168981 4.740444 -4.656065 25.347100 15.253969 -18.875211 7.473523 12.882058 
-2.123920 0.769941 0.969014 98.177318 -9.395928 80.956061 -8.025191 -0.767582 -7.644116 -9.883698 -1.592658 24.481251 2.245708 6.330202 -17.701723 0.000000 -0.000000 0.000000 -15.338113 -6.382065 -2.723481 -5.508641 -3.705563 35.010920 1.530825 -12.850314 -24.108199 0.000000 -0.000000 0.000000 6.736293 3.322197 5.409126 0.990306 -3.829476 6.532654 -0.788182 2.218922 1.822499 -10.206141 -13.695627 24.245807 5.117584 -9.821398 -16.389193 -10.559182 -12.027704 0.274655 -49.750269 -16.548899 5.424301 5.074787 -33.420946 11.883700 11.315184 -6.093595 -4.431528 10.627578 13.172703 4.842200 50.129605 5.077151 4.138967 -4.411332 25.054104 15.378193 -17.481709 7.323456 13.438822 
